<?xml version="1.0" encoding="utf-8"?>
<!-- Generator: Adobe Illustrator 15.0.2, SVG Export Plug-In . SVG Version: 6.00 Build 0)  -->
<!DOCTYPE svg PUBLIC "-//W3C//DTD SVG 1.1//EN" "http://www.w3.org/Graphics/SVG/1.1/DTD/svg11.dtd">
<svg version="1.1" id="Шар_1" xmlns="http://www.w3.org/2000/svg" xmlns:xlink="http://www.w3.org/1999/xlink" x="0px" y="0px"
	 width="20px" height="20px" viewBox="0 0 20 20" enable-background="new 0 0 20 20" xml:space="preserve">
<g id="Timeline">
	<path id="Фігура-9" fill="#FFFFFF" d="M16,13.986V6.001h2.998v7.985H16z M1,6.001h2.998v7.985H1V6.001z"/>
	<path id="Фігура-9-копія-7" fill="#4D82B8" d="M4,6.001h12.01v7.985H4V6.001z"/>
	<path id="Фігура-9-копія-2" fill="#808080" d="M17,3V2h-2v1h-1V2h-2v1h-1V2H9v1H8V2H6v1H5V2H3v1H2V2V1.344V1h16v0.344V2
		v1H17z M1,17h0.999v1.996H1V17z M14.995,18.996H6V17h8.995V18.996z M17.999,18.996H17V17h0.999V18.996z"/>
</g>
</svg>
